inDegrees=no
num_controls=7
num_derivatives=13
num_iterations=114
num_multipliers=7
num_parameters=0
num_slacks=7
num_states=26
objective=0.516639
objective_accelerations=0.039436
objective_balance=0.002270
objective_effort=0.044255
objective_height=0.419040
objective_ligament=0.011638
solver_duration=1521.856062
status=Solve_Succeeded
success=true
DataType=double
version=3
OpenSimVersion=4.5
endheader
time	/jointset/ground_pelvis/pelvis_tilt/value	/jointset/ground_pelvis/pelvis_tx/value	/jointset/ground_pelvis/pelvis_ty/value	/jointset/hip_l/hip_flexion_l/value	/jointset/hip_l/hip_adduction_l/value	/jointset/hip_l/hip_rotation_l/value	/jointset/back/lumbar_extension/value	/jointset/patellofemoral_l/patellar_flexion_l/value	/jointset/knee_l/knee_flexion_l/value	/jointset/knee_l/knee_adduction_l/value	/jointset/knee_l/knee_rotation_l/value	/jointset/ankle_l/ankle_angle_l/value	/jointset/subtalar_l/subtalar_angle_l/value	/jointset/ground_pelvis/pelvis_tilt/speed	/jointset/ground_pelvis/pelvis_tx/speed	/jointset/ground_pelvis/pelvis_ty/speed	/jointset/hip_l/hip_flexion_l/speed	/jointset/hip_l/hip_adduction_l/speed	/jointset/hip_l/hip_rotation_l/speed	/jointset/back/lumbar_extension/speed	/jointset/patellofemoral_l/patellar_flexion_l/speed	/jointset/knee_l/knee_flexion_l/speed	/jointset/knee_l/knee_adduction_l/speed	/jointset/knee_l/knee_rotation_l/speed	/jointset/ankle_l/ankle_angle_l/speed	/jointset/subtalar_l/subtalar_angle_l/speed	/forceset/tau_hip_flexion_l	/forceset/tau_hip_adduction_l	/forceset/tau_hip_rotation_l	/forceset/tau_knee_flexion_l	/forceset/tau_ankle_angle_l	/forceset/tau_subtalar_angle_l	/forceset/tau_lumbar_extension	lambda_cid13_p0	lambda_cid13_p1	lambda_cid13_p2	lambda_cid13_p3	lambda_cid13_p4	lambda_cid13_p5	lambda_cid14_p0	/jointset/ground_pelvis/pelvis_tilt/accel	/jointset/ground_pelvis/pelvis_tx/accel	/jointset/ground_pelvis/pelvis_ty/accel	/jointset/hip_l/hip_flexion_l/accel	/jointset/hip_l/hip_adduction_l/accel	/jointset/hip_l/hip_rotation_l/accel	/jointset/back/lumbar_extension/accel	/jointset/patellofemoral_l/patellar_flexion_l/accel	/jointset/knee_l/knee_flexion_l/accel	/jointset/knee_l/knee_adduction_l/accel	/jointset/knee_l/knee_rotation_l/accel	/jointset/ankle_l/ankle_angle_l/accel	/jointset/subtalar_l/subtalar_angle_l/accel	gamma_cid13_p0	gamma_cid13_p1	gamma_cid13_p2	gamma_cid13_p3	gamma_cid13_p4	gamma_cid13_p5	gamma_cid14_p0
0.5	-0.1244351844991636	-0.05898596221465483	0.8245037406052637	0.895445099318863	-0.3215726511103611	-0.1279516755701564	-0.7813841038048364	0.7799030262667502	0.7799030262667475	-0.1046936295599549	-0.1744304576594657	0.06300480889631284	-0.007289657816624292	-0.2190786590870733	-0.2130401962900957	-0.3392091867216753	1.504883859167742	-0.0383886055251628	0.4412113652773215	-0.8417068827016535	1.41611414783314	1.416114147833143	0.1430652337485104	0.0002621364417002371	0.2200033646943371	0.02775415325234996	-0.2862484406669007	0.02187859934799567	-0.003846041125393526	-0.2067055763860724	0.1190272949213979	0.04919346036132392	0.3330909112896824	-6.376702356984506	-21.58847183540347	4.518392084374438	-9.993042233237615	-703.9617770145012	-75.99586496695591	-15.2037678706045	0.2786865844981949	0.669263209284224	-0.114801606981299	-1.433643370337551	0.1992436767226739	-0.3598483567335776	1.773363092015557	-1.062396749300715	-1.062396749300786	-0.2858678051021284	0.007171202971196534	0.03996521487332598	0.2315377248436232	-1.129569582844679e-07	-3.124180480878438e-07	4.66424799459049e-07	1.659930127841062e-08	-1.387133672260101e-07	-3.839706411369016e-08	-1.070062371391931e-07
0.51	-0.1266117276814674	-0.0610828241369734	0.8211066576339329	0.9104199293329002	-0.321947193976801	-0.1235576231346393	-0.7897116061736934	0.7940086064036129	0.7940086064036144	-0.1032789224594002	-0.1744277252856033	0.0652059780899822	-0.007001482577635559	-0.2162009023000822	-0.2063258856678296	-0.3401309194217979	1.489872748640947	-0.036522037997384	0.4375365001943798	-0.8237004075146795	1.404778436179138	1.404778436179142	0.139864750029477	0.0002760141272671603	0.2201718942220168	0.02986113918453836	-0.2929366610586625	0.02241527445375804	-0.004076668860546199	-0.2088992155512356	0.1189895980994611	0.04959538652343149	0.3394240966272004	-6.616802032601706	-21.67154940185056	4.475165164398547	-9.881843773814715	-707.9356105359653	-75.80891616740425	-14.68928063948107	0.2966679601189763	0.6734703553225988	-0.06941779626306903	-1.56627156485376	0.17999208352047	-0.38081121308796	1.828267265297997	-1.202651470096227	-1.202651470096181	-0.3388694298627229	-0.002619846052393244	-0.003495601125872492	0.1972733274551599	-1.3461859873478e-07	-1.832598681212566e-07	6.573087288472873e-07	5.206219087341672e-08	-1.525044774813905e-07	-2.758633176510336e-08	-1.134689611645494e-07
0.52	-0.1287586237490373	-0.06311235187974434	0.8177026455966537	0.9252383629074689	-0.32230314540942	-0.1192022204757543	-0.7978562482840287	0.8079941308046065	0.8079941308046121	-0.1018965663509475	-0.1744250773143649	0.06740707409436014	-0.006692838619315198	-0.2131492361403147	-0.1995733603805718	-0.3405949999113336	1.473604571274021	-0.03467031876100341	0.4334814099508982	-0.8051348309973183	1.392103000659282	1.392103000659286	0.1365950353280922	0.0002452559167744444	0.2199887268360499	0.03184789711867522	-0.2996248814504242	0.02295194955952044	-0.004307296595699193	-0.2110928547163987	0.1189519012775243	0.04999731268553914	0.3457572819647184	-6.859284789718749	-21.75512729011484	4.433066591973111	-9.805144969379528	-711.9735956046337	-75.65981096002317	-14.17186394708945	0.3134684590534756	0.6769061422825468	-0.02327116486392915	-1.68505673836364	0.1962740184430276	-0.4358933888415785	1.885183358093047	-1.33034152247168	-1.33034152247168	-0.2997140015724124	-0.00175597623936103	-0.0303741678560027	0.2074921252333165	-1.281625558429317e-07	-1.251713340437287e-07	6.638820834286572e-07	5.632203526519657e-08	-1.382379274648981e-07	-1.309815108471386e-08	-1.062601255340361e-07
0.53	-0.1308741825737511	-0.06507416312475962	0.8142962856357958	0.9398879814611237	-0.3226406619217016	-0.114888887954941	-0.8058124929638155	0.8218464378824676	0.821846437882473	-0.100547383277179	-0.1744227237039144	0.06960475398846164	-0.00636488600526932	-0.2099337125040069	-0.1927821231560571	-0.3405987216712831	1.456112118400162	-0.03284304595623844	0.4291380560110037	-0.78603193437935	1.378150972581468	1.378150972581466	0.1332149297556413	0.000219238690380005	0.2195017044797798	0.03371832503203831	-0.305949011344899	0.02319556355213864	-0.004524719658356957	-0.2136798009857938	0.119450320558932	0.05029515670668867	0.351814049470045	-6.928040973213077	-21.82035635960272	4.383971040863289	-9.850517500801779	-715.9401567980262	-75.5156847688572	-13.65216040682499	0.3299033081188343	0.6812590444061366	0.02279175790261367	-1.812409697969481	0.1743659121215787	-0.4407105061834068	1.935168400755301	-1.458729305427019	-1.458729305427577	-0.3611519618549393	-0.003825662144438861	-0.06469879174702456	0.1731102329527799	-1.225717758220991e-07	-8.043071967825704e-08	6.654762272206459e-07	5.96392816062205e-08	-1.266170520852506e-07	4.0763273013211e-11	-1.002759977279934e-07
0.54	-0.132956724363662	-0.06696785669115572	0.8108922313452313	0.9543564614588256	-0.3229602233058099	-0.1106204197954507	-0.8135752435600014	0.8355530055085526	0.8355530055085579	-0.09923279988448956	-0.174420790478989	0.07179619715455357	-0.006018970690376813	-0.2065458291797247	-0.1859498246567365	-0.3401338658527097	1.437376860083409	-0.03107929312633959	0.4245085376863082	-0.7664360142771193	1.362955110304029	1.362955110304026	0.1296750991122556	0.0001611788117874293	0.218741381234137	0.03544043728800042	-0.3122731412393738	0.02343917754475681	-0.004742142721014312	-0.2162667472551869	0.1199487398403396	0.05059300072785358	0.3578708169753675	-7.000571361827479	-21.88593833768692	4.336090188180706	-9.926298618537457	-719.9895023912718	-75.40903110777391	-13.13094539833225	0.3479403966483651	0.685118397243721	0.07044435084064629	-1.933617826942235	0.1835700234698039	-0.4931262658017834	1.98378805494551	-1.579108362395915	-1.579108362395917	-0.3316590157588074	-0.008164506678988518	-0.08503434572976318	0.1778289937531239	-1.179383079138798e-07	-5.045801648357124e-08	6.615614569477873e-07	6.191365350811019e-08	-1.179233060910487e-07	1.168687233758184e-08	-9.564686581285434e-08
0.55	-0.1350045522258927	-0.06879312907823756	0.8074951793908924	0.9686314966964411	-0.3232624489928245	-0.1063993163591588	-0.8211397612120583	0.8491013804690853	0.8491013804690916	-0.09795460128381514	-0.1744193247045852	0.07397858165030494	-0.005656598951373173	-0.2029924310671275	-0.179108204603437	-0.3391967112437585	1.417429587317291	-0.02937893531721921	0.4196906796075466	-0.7464054210087393	1.346506759319586	1.346506759319582	0.1259157670537719	0.0001428348883834515	0.2176784261179563	0.03700170328391857	-0.3184375606989053	0.02370249666093431	-0.00492507571490408	-0.2186409798280361	0.1199170357308044	0.05081598070955112	0.363673832136469	-7.242006146757092	-21.88985537279589	4.278860313249093	-9.736086845191982	-723.8807944484338	-75.21960323980159	-12.60907786083612	0.3631234436788521	0.6831636636459704	0.1173004453619822	-2.055388210973395	0.1612192671087039	-0.4794247663224395	2.022009231615638	-1.709648214530287	-1.70964821453049	-0.4053854493904167	0.003090189339348657	-0.1254877364961745	0.1403727227455618	-1.115203633309814e-07	-1.793347450639543e-08	6.525132466423402e-07	6.305249492701442e-08	-1.063390610922957e-07	2.342909719174491e-08	-8.996243499493561e-08
0.5600000000000001	-0.1370160293219747	-0.07055008929393181	0.8041098888685313	0.9827010379644903	-0.3235480809802528	-0.1022270533411363	-0.8285021100776654	0.8624788819701613	0.8624788819701684	-0.09671545903342504	-0.1744176904645133	0.07614862426650773	-0.005279595088363471	-0.1992756759499918	-0.1722873903792211	-0.3377815794572222	1.396278066170099	-0.02776055320908746	0.4147404540324214	-0.726002256987103	1.328780418412672	1.328780418412666	0.1218638290553978	0.0001948719454044239	0.2162730053244181	0.03836686208921277	-0.3246019801584367	0.02396581577711183	-0.005108008708794126	-0.2210152124008903	0.1198853316212693	0.05103896069126046	0.3694768472975705	-7.487878733307639	-21.89402134868182	4.2228424906517	-9.573028969678662	-727.8623891252845	-75.06751266368175	-12.08753347413031	0.3806117975560813	0.6809572314270143	0.1660397863576763	-2.174467503156983	0.1671748832720786	-0.5195997650745136	2.058302205596775	-1.834706346890202	-1.834706346890203	-0.3901802037368634	0.005911689406692145	-0.1535274812011955	0.1386075556283329	-1.02961046738468e-07	1.765327400976831e-08	6.373049082977873e-07	6.282869976633616e-08	-9.128621728808171e-08	3.52866609934213e-08	-8.301164549368125e-08
